<mxfile host="Electron" modified="2025-04-13T03:34:08.354Z" agent="Mozilla/5.0 (Windows NT 10.0; Win64; x64) AppleWebKit/537.36 (KHTML, like Gecko) draw.io/21.2.8 Chrome/112.0.5615.165 Electron/24.2.0 Safari/537.36" etag="LzbIYwgNLk2Ic_VXXkcC" version="21.2.8" type="device">
  <diagram name="第 1 页" id="RzkD8lSpZdeh0Qot4_BQ">
    <mxGraphModel dx="3773" dy="836" grid="1" gridSize="10" guides="1" tooltips="1" connect="1" arrows="1" fold="1" page="1" pageScale="1" pageWidth="2339" pageHeight="3300" math="0" shadow="0">
      <root>
        <mxCell id="0" />
        <mxCell id="1" parent="0" />
        <mxCell id="rV2PJGgQM-Izon9mqpt5-44" value="" style="rounded=0;whiteSpace=wrap;html=1;" parent="1" vertex="1">
          <mxGeometry x="1590" y="210" width="200" height="610" as="geometry" />
        </mxCell>
        <mxCell id="rV2PJGgQM-Izon9mqpt5-13" value="" style="rounded=0;whiteSpace=wrap;html=1;fillColor=#A9C4EB;" parent="1" vertex="1">
          <mxGeometry x="-240" y="80" width="960" height="120" as="geometry" />
        </mxCell>
        <mxCell id="rV2PJGgQM-Izon9mqpt5-12" value="" style="rounded=0;whiteSpace=wrap;html=1;fillColor=#FFCCCC;" parent="1" vertex="1">
          <mxGeometry x="-240" y="200" width="960" height="230" as="geometry" />
        </mxCell>
        <mxCell id="RZKY2WEgMke_fP3LsuPX-1" style="edgeStyle=orthogonalEdgeStyle;rounded=0;orthogonalLoop=1;jettySize=auto;html=1;entryX=0.5;entryY=1;entryDx=0;entryDy=0;" edge="1" parent="1">
          <mxGeometry relative="1" as="geometry">
            <mxPoint x="109" y="240" as="sourcePoint" />
            <mxPoint x="-151" y="180" as="targetPoint" />
          </mxGeometry>
        </mxCell>
        <mxCell id="RZKY2WEgMke_fP3LsuPX-14" style="edgeStyle=orthogonalEdgeStyle;rounded=0;orthogonalLoop=1;jettySize=auto;html=1;" edge="1" parent="1">
          <mxGeometry relative="1" as="geometry">
            <mxPoint x="111" y="240" as="sourcePoint" />
            <mxPoint x="361" y="180" as="targetPoint" />
          </mxGeometry>
        </mxCell>
        <mxCell id="rV2PJGgQM-Izon9mqpt5-4" value="GPU 驱动" style="rounded=0;whiteSpace=wrap;html=1;" parent="1" vertex="1">
          <mxGeometry x="-210" y="240" width="640" height="60" as="geometry" />
        </mxCell>
        <mxCell id="rV2PJGgQM-Izon9mqpt5-20" style="edgeStyle=orthogonalEdgeStyle;rounded=0;orthogonalLoop=1;jettySize=auto;html=1;" parent="1" source="rV2PJGgQM-Izon9mqpt5-16" edge="1">
          <mxGeometry relative="1" as="geometry">
            <mxPoint x="-30" y="150" as="targetPoint" />
          </mxGeometry>
        </mxCell>
        <mxCell id="rV2PJGgQM-Izon9mqpt5-16" value="get input dmabuff" style="rounded=0;whiteSpace=wrap;html=1;" parent="1" vertex="1">
          <mxGeometry x="-210" y="120" width="120" height="60" as="geometry" />
        </mxCell>
        <mxCell id="rV2PJGgQM-Izon9mqpt5-21" value="" style="rounded=0;whiteSpace=wrap;html=1;" parent="1" vertex="1">
          <mxGeometry x="1280" y="210" width="200" height="610" as="geometry" />
        </mxCell>
        <mxCell id="rV2PJGgQM-Izon9mqpt5-40" style="edgeStyle=orthogonalEdgeStyle;rounded=0;orthogonalLoop=1;jettySize=auto;html=1;entryX=1;entryY=0.5;entryDx=0;entryDy=0;" parent="1" source="rV2PJGgQM-Izon9mqpt5-25" target="rV2PJGgQM-Izon9mqpt5-34" edge="1">
          <mxGeometry relative="1" as="geometry" />
        </mxCell>
        <mxCell id="rV2PJGgQM-Izon9mqpt5-25" value="dma_buf_attach" style="rounded=0;whiteSpace=wrap;html=1;" parent="1" vertex="1">
          <mxGeometry x="1610" y="330" width="170" height="60" as="geometry" />
        </mxCell>
        <mxCell id="rV2PJGgQM-Izon9mqpt5-41" style="edgeStyle=orthogonalEdgeStyle;rounded=0;orthogonalLoop=1;jettySize=auto;html=1;entryX=1;entryY=0.5;entryDx=0;entryDy=0;" parent="1" source="rV2PJGgQM-Izon9mqpt5-28" target="rV2PJGgQM-Izon9mqpt5-35" edge="1">
          <mxGeometry relative="1" as="geometry" />
        </mxCell>
        <mxCell id="rV2PJGgQM-Izon9mqpt5-28" value="dma_buf_map_attachment" style="rounded=0;whiteSpace=wrap;html=1;" parent="1" vertex="1">
          <mxGeometry x="1610" y="430" width="170" height="60" as="geometry" />
        </mxCell>
        <mxCell id="rV2PJGgQM-Izon9mqpt5-29" value="access the buf" style="rounded=0;whiteSpace=wrap;html=1;" parent="1" vertex="1">
          <mxGeometry x="1610" y="520" width="170" height="60" as="geometry" />
        </mxCell>
        <mxCell id="rV2PJGgQM-Izon9mqpt5-42" style="edgeStyle=orthogonalEdgeStyle;rounded=0;orthogonalLoop=1;jettySize=auto;html=1;entryX=1;entryY=0.5;entryDx=0;entryDy=0;" parent="1" source="rV2PJGgQM-Izon9mqpt5-31" target="rV2PJGgQM-Izon9mqpt5-37" edge="1">
          <mxGeometry relative="1" as="geometry" />
        </mxCell>
        <mxCell id="rV2PJGgQM-Izon9mqpt5-31" value="dma_buf_unmap_attachment" style="rounded=0;whiteSpace=wrap;html=1;" parent="1" vertex="1">
          <mxGeometry x="1610" y="630" width="170" height="60" as="geometry" />
        </mxCell>
        <mxCell id="rV2PJGgQM-Izon9mqpt5-43" style="edgeStyle=orthogonalEdgeStyle;rounded=0;orthogonalLoop=1;jettySize=auto;html=1;entryX=1;entryY=0.5;entryDx=0;entryDy=0;" parent="1" source="rV2PJGgQM-Izon9mqpt5-32" target="rV2PJGgQM-Izon9mqpt5-38" edge="1">
          <mxGeometry relative="1" as="geometry" />
        </mxCell>
        <mxCell id="rV2PJGgQM-Izon9mqpt5-32" value="dma_buf_detach" style="rounded=0;whiteSpace=wrap;html=1;" parent="1" vertex="1">
          <mxGeometry x="1610" y="740" width="170" height="60" as="geometry" />
        </mxCell>
        <mxCell id="rV2PJGgQM-Izon9mqpt5-34" value="dmabuf-&amp;gt;ops-&amp;gt;attach" style="rounded=0;whiteSpace=wrap;html=1;" parent="1" vertex="1">
          <mxGeometry x="1295" y="330" width="170" height="60" as="geometry" />
        </mxCell>
        <mxCell id="rV2PJGgQM-Izon9mqpt5-35" value="attach-&amp;gt;dmabuf-&amp;gt;ops-&amp;gt;map_dma_buf" style="rounded=0;whiteSpace=wrap;html=1;" parent="1" vertex="1">
          <mxGeometry x="1295" y="430" width="170" height="60" as="geometry" />
        </mxCell>
        <mxCell id="rV2PJGgQM-Izon9mqpt5-37" value="attach-&amp;gt;dmabuf-&amp;gt;ops-&amp;gt;unmap_dma_buf" style="rounded=0;whiteSpace=wrap;html=1;" parent="1" vertex="1">
          <mxGeometry x="1295" y="630" width="170" height="60" as="geometry" />
        </mxCell>
        <mxCell id="rV2PJGgQM-Izon9mqpt5-38" value="dmabuf-&amp;gt;ops-&amp;gt;detach" style="rounded=0;whiteSpace=wrap;html=1;" parent="1" vertex="1">
          <mxGeometry x="1295" y="740" width="170" height="60" as="geometry" />
        </mxCell>
        <mxCell id="rV2PJGgQM-Izon9mqpt5-46" value="exporter" style="text;strokeColor=none;fillColor=none;html=1;fontSize=24;fontStyle=1;verticalAlign=middle;align=center;" parent="1" vertex="1">
          <mxGeometry x="1330" y="230" width="100" height="40" as="geometry" />
        </mxCell>
        <mxCell id="rV2PJGgQM-Izon9mqpt5-47" value="importer" style="text;strokeColor=none;fillColor=none;html=1;fontSize=24;fontStyle=1;verticalAlign=middle;align=center;" parent="1" vertex="1">
          <mxGeometry x="1645" y="230" width="100" height="40" as="geometry" />
        </mxCell>
        <mxCell id="rV2PJGgQM-Izon9mqpt5-49" value="将importer driver attach 到dmabuf 上，若importer driver可以访问该dmabuf的物理内存，则返回attachment 对象" style="rounded=0;whiteSpace=wrap;html=1;" parent="1" vertex="1">
          <mxGeometry x="1810" y="330" width="370" height="60" as="geometry" />
        </mxCell>
        <mxCell id="rV2PJGgQM-Izon9mqpt5-50" value="将attachment map 到importer 的地址空间，表示importer即将开始访问物理内存，该函数返回sg_table对象" style="rounded=0;whiteSpace=wrap;html=1;" parent="1" vertex="1">
          <mxGeometry x="1810" y="430" width="370" height="60" as="geometry" />
        </mxCell>
        <mxCell id="rV2PJGgQM-Izon9mqpt5-51" value="importer 从sg_table拿到物理地址，设置到设备寄存器中开始处理数据" style="rounded=0;whiteSpace=wrap;html=1;" parent="1" vertex="1">
          <mxGeometry x="1810" y="520" width="370" height="60" as="geometry" />
        </mxCell>
        <mxCell id="rV2PJGgQM-Izon9mqpt5-52" value="importer 数据处理完成，回调unmap，通知exporter其他驱动可以访问该dmabuf了" style="rounded=0;whiteSpace=wrap;html=1;" parent="1" vertex="1">
          <mxGeometry x="1810" y="630" width="370" height="60" as="geometry" />
        </mxCell>
        <mxCell id="rV2PJGgQM-Izon9mqpt5-53" value="彻底结束对dmabuf 的访问" style="rounded=0;whiteSpace=wrap;html=1;" parent="1" vertex="1">
          <mxGeometry x="1810" y="740" width="370" height="60" as="geometry" />
        </mxCell>
        <mxCell id="rV2PJGgQM-Izon9mqpt5-54" value="callback" style="text;html=1;strokeColor=none;fillColor=none;align=center;verticalAlign=middle;whiteSpace=wrap;rounded=0;" parent="1" vertex="1">
          <mxGeometry x="1510" y="335" width="60" height="30" as="geometry" />
        </mxCell>
        <mxCell id="rV2PJGgQM-Izon9mqpt5-55" value="callback" style="text;html=1;strokeColor=none;fillColor=none;align=center;verticalAlign=middle;whiteSpace=wrap;rounded=0;" parent="1" vertex="1">
          <mxGeometry x="1510" y="430" width="60" height="30" as="geometry" />
        </mxCell>
        <mxCell id="rV2PJGgQM-Izon9mqpt5-57" value="callback" style="text;html=1;strokeColor=none;fillColor=none;align=center;verticalAlign=middle;whiteSpace=wrap;rounded=0;" parent="1" vertex="1">
          <mxGeometry x="1500" y="630" width="60" height="30" as="geometry" />
        </mxCell>
        <mxCell id="rV2PJGgQM-Izon9mqpt5-58" value="callback" style="text;html=1;strokeColor=none;fillColor=none;align=center;verticalAlign=middle;whiteSpace=wrap;rounded=0;" parent="1" vertex="1">
          <mxGeometry x="1510" y="730" width="60" height="30" as="geometry" />
        </mxCell>
        <mxCell id="rV2PJGgQM-Izon9mqpt5-59" value="" style="rounded=0;whiteSpace=wrap;html=1;" parent="1" vertex="1">
          <mxGeometry x="1240" y="1460" width="420" height="60" as="geometry" />
        </mxCell>
        <mxCell id="rV2PJGgQM-Izon9mqpt5-60" value="" style="rounded=0;whiteSpace=wrap;html=1;" parent="1" vertex="1">
          <mxGeometry x="1240" y="1460" width="190" height="60" as="geometry" />
        </mxCell>
        <mxCell id="rV2PJGgQM-Izon9mqpt5-75" style="edgeStyle=orthogonalEdgeStyle;rounded=0;orthogonalLoop=1;jettySize=auto;html=1;entryX=1;entryY=0.5;entryDx=0;entryDy=0;" parent="1" source="rV2PJGgQM-Izon9mqpt5-61" target="rV2PJGgQM-Izon9mqpt5-74" edge="1">
          <mxGeometry relative="1" as="geometry">
            <Array as="points">
              <mxPoint x="1455" y="1610" />
            </Array>
          </mxGeometry>
        </mxCell>
        <mxCell id="rV2PJGgQM-Izon9mqpt5-79" style="edgeStyle=orthogonalEdgeStyle;rounded=0;orthogonalLoop=1;jettySize=auto;html=1;entryX=0;entryY=0.5;entryDx=0;entryDy=0;" parent="1" source="rV2PJGgQM-Izon9mqpt5-61" target="rV2PJGgQM-Izon9mqpt5-76" edge="1">
          <mxGeometry relative="1" as="geometry">
            <Array as="points">
              <mxPoint x="1455" y="1610" />
            </Array>
          </mxGeometry>
        </mxCell>
        <mxCell id="rV2PJGgQM-Izon9mqpt5-61" value="fence" style="rounded=0;whiteSpace=wrap;html=1;fillColor=#FFCCCC;" parent="1" vertex="1">
          <mxGeometry x="1430" y="1460" width="50" height="60" as="geometry" />
        </mxCell>
        <mxCell id="rV2PJGgQM-Izon9mqpt5-65" value="GPU渲染" style="text;html=1;strokeColor=none;fillColor=none;align=center;verticalAlign=middle;whiteSpace=wrap;rounded=0;" parent="1" vertex="1">
          <mxGeometry x="1305" y="1475" width="60" height="30" as="geometry" />
        </mxCell>
        <mxCell id="rV2PJGgQM-Izon9mqpt5-66" value="DRM 显示" style="text;html=1;strokeColor=none;fillColor=none;align=center;verticalAlign=middle;whiteSpace=wrap;rounded=0;" parent="1" vertex="1">
          <mxGeometry x="1540" y="1475" width="70" height="30" as="geometry" />
        </mxCell>
        <mxCell id="rV2PJGgQM-Izon9mqpt5-67" value="DMA BUF1" style="text;strokeColor=none;fillColor=none;html=1;fontSize=24;fontStyle=1;verticalAlign=middle;align=center;" parent="1" vertex="1">
          <mxGeometry x="1380" y="1410" width="140" height="40" as="geometry" />
        </mxCell>
        <mxCell id="rV2PJGgQM-Izon9mqpt5-68" value="DMA BUF2" style="text;strokeColor=none;fillColor=none;html=1;fontSize=24;fontStyle=1;verticalAlign=middle;align=center;" parent="1" vertex="1">
          <mxGeometry x="1380" y="1670" width="140" height="40" as="geometry" />
        </mxCell>
        <mxCell id="rV2PJGgQM-Izon9mqpt5-69" value="" style="rounded=0;whiteSpace=wrap;html=1;" parent="1" vertex="1">
          <mxGeometry x="1240" y="1720" width="420" height="60" as="geometry" />
        </mxCell>
        <mxCell id="rV2PJGgQM-Izon9mqpt5-70" value="" style="rounded=0;whiteSpace=wrap;html=1;" parent="1" vertex="1">
          <mxGeometry x="1240" y="1720" width="190" height="60" as="geometry" />
        </mxCell>
        <mxCell id="rV2PJGgQM-Izon9mqpt5-71" value="fence" style="rounded=0;whiteSpace=wrap;html=1;fillColor=#FFCCCC;" parent="1" vertex="1">
          <mxGeometry x="1430" y="1720" width="50" height="60" as="geometry" />
        </mxCell>
        <mxCell id="rV2PJGgQM-Izon9mqpt5-72" value="GPU渲染" style="text;html=1;strokeColor=none;fillColor=none;align=center;verticalAlign=middle;whiteSpace=wrap;rounded=0;" parent="1" vertex="1">
          <mxGeometry x="1305" y="1735" width="60" height="30" as="geometry" />
        </mxCell>
        <mxCell id="rV2PJGgQM-Izon9mqpt5-73" value="DRM 显示" style="text;html=1;strokeColor=none;fillColor=none;align=center;verticalAlign=middle;whiteSpace=wrap;rounded=0;" parent="1" vertex="1">
          <mxGeometry x="1530" y="1735" width="70" height="30" as="geometry" />
        </mxCell>
        <mxCell id="rV2PJGgQM-Izon9mqpt5-74" value="GPU线程" style="rounded=0;whiteSpace=wrap;html=1;" parent="1" vertex="1">
          <mxGeometry x="1140" y="1430" width="70" height="360" as="geometry" />
        </mxCell>
        <mxCell id="rV2PJGgQM-Izon9mqpt5-76" value="DRM线程" style="rounded=0;whiteSpace=wrap;html=1;" parent="1" vertex="1">
          <mxGeometry x="1710" y="1430" width="70" height="360" as="geometry" />
        </mxCell>
        <mxCell id="rV2PJGgQM-Izon9mqpt5-78" value="" style="endArrow=classic;html=1;rounded=0;entryX=0.5;entryY=0;entryDx=0;entryDy=0;" parent="1" target="rV2PJGgQM-Izon9mqpt5-71" edge="1">
          <mxGeometry width="50" height="50" relative="1" as="geometry">
            <mxPoint x="1210" y="1650" as="sourcePoint" />
            <mxPoint x="1320" y="1690" as="targetPoint" />
            <Array as="points">
              <mxPoint x="1335" y="1650" />
            </Array>
          </mxGeometry>
        </mxCell>
        <mxCell id="rV2PJGgQM-Izon9mqpt5-80" value="" style="endArrow=classic;html=1;rounded=0;exitX=0;exitY=0.303;exitDx=0;exitDy=0;exitPerimeter=0;entryX=0.75;entryY=1;entryDx=0;entryDy=0;" parent="1" source="rV2PJGgQM-Izon9mqpt5-76" target="rV2PJGgQM-Izon9mqpt5-59" edge="1">
          <mxGeometry width="50" height="50" relative="1" as="geometry">
            <mxPoint x="1630" y="1580" as="sourcePoint" />
            <mxPoint x="1680" y="1530" as="targetPoint" />
            <Array as="points">
              <mxPoint x="1555" y="1539" />
            </Array>
          </mxGeometry>
        </mxCell>
        <mxCell id="rV2PJGgQM-Izon9mqpt5-81" value="2" style="ellipse;whiteSpace=wrap;html=1;aspect=fixed;" parent="1" vertex="1">
          <mxGeometry x="1330" y="1640" width="20" height="20" as="geometry" />
        </mxCell>
        <mxCell id="rV2PJGgQM-Izon9mqpt5-82" value="1" style="ellipse;whiteSpace=wrap;html=1;aspect=fixed;" parent="1" vertex="1">
          <mxGeometry x="1450" y="1570" width="20" height="20" as="geometry" />
        </mxCell>
        <mxCell id="rV2PJGgQM-Izon9mqpt5-83" value="2" style="ellipse;whiteSpace=wrap;html=1;aspect=fixed;" parent="1" vertex="1">
          <mxGeometry x="1625" y="1550" width="20" height="20" as="geometry" />
        </mxCell>
        <mxCell id="rV2PJGgQM-Izon9mqpt5-85" value="user" style="text;strokeColor=none;fillColor=none;html=1;fontSize=24;fontStyle=1;verticalAlign=middle;align=center;" parent="1" vertex="1">
          <mxGeometry x="50" y="80" width="100" height="40" as="geometry" />
        </mxCell>
        <mxCell id="rV2PJGgQM-Izon9mqpt5-86" value="kernel" style="text;strokeColor=none;fillColor=none;html=1;fontSize=24;fontStyle=1;verticalAlign=middle;align=center;" parent="1" vertex="1">
          <mxGeometry x="-230" y="395" width="100" height="40" as="geometry" />
        </mxCell>
        <mxCell id="RZKY2WEgMke_fP3LsuPX-6" style="edgeStyle=orthogonalEdgeStyle;rounded=0;orthogonalLoop=1;jettySize=auto;html=1;entryX=0;entryY=0.5;entryDx=0;entryDy=0;" edge="1" parent="1" source="RZKY2WEgMke_fP3LsuPX-4" target="RZKY2WEgMke_fP3LsuPX-5">
          <mxGeometry relative="1" as="geometry" />
        </mxCell>
        <mxCell id="RZKY2WEgMke_fP3LsuPX-4" value="read file to dmabuf" style="rounded=0;whiteSpace=wrap;html=1;" vertex="1" parent="1">
          <mxGeometry x="-30" y="120" width="120" height="60" as="geometry" />
        </mxCell>
        <mxCell id="RZKY2WEgMke_fP3LsuPX-8" style="edgeStyle=orthogonalEdgeStyle;rounded=0;orthogonalLoop=1;jettySize=auto;html=1;entryX=0.5;entryY=0;entryDx=0;entryDy=0;" edge="1" parent="1" source="RZKY2WEgMke_fP3LsuPX-5" target="RZKY2WEgMke_fP3LsuPX-7">
          <mxGeometry relative="1" as="geometry" />
        </mxCell>
        <mxCell id="RZKY2WEgMke_fP3LsuPX-10" style="edgeStyle=orthogonalEdgeStyle;rounded=0;orthogonalLoop=1;jettySize=auto;html=1;entryX=0;entryY=0.5;entryDx=0;entryDy=0;" edge="1" parent="1" source="RZKY2WEgMke_fP3LsuPX-5" target="RZKY2WEgMke_fP3LsuPX-9">
          <mxGeometry relative="1" as="geometry" />
        </mxCell>
        <mxCell id="RZKY2WEgMke_fP3LsuPX-13" style="edgeStyle=orthogonalEdgeStyle;rounded=0;orthogonalLoop=1;jettySize=auto;html=1;entryX=0.5;entryY=0;entryDx=0;entryDy=0;" edge="1" parent="1">
          <mxGeometry relative="1" as="geometry">
            <mxPoint x="237" y="180" as="sourcePoint" />
            <mxPoint x="167" y="240" as="targetPoint" />
          </mxGeometry>
        </mxCell>
        <mxCell id="RZKY2WEgMke_fP3LsuPX-5" value="enqueue dmabuf" style="rounded=0;whiteSpace=wrap;html=1;" vertex="1" parent="1">
          <mxGeometry x="120" y="120" width="120" height="60" as="geometry" />
        </mxCell>
        <mxCell id="RZKY2WEgMke_fP3LsuPX-7" value="DRM 驱动" style="rounded=0;whiteSpace=wrap;html=1;" vertex="1" parent="1">
          <mxGeometry x="480" y="240" width="120" height="60" as="geometry" />
        </mxCell>
        <mxCell id="RZKY2WEgMke_fP3LsuPX-9" value="get output dmabuf" style="rounded=0;whiteSpace=wrap;html=1;" vertex="1" parent="1">
          <mxGeometry x="300" y="120" width="120" height="60" as="geometry" />
        </mxCell>
        <mxCell id="RZKY2WEgMke_fP3LsuPX-11" value="enqeuue output dmabuf" style="rounded=0;whiteSpace=wrap;html=1;" vertex="1" parent="1">
          <mxGeometry x="470" y="120" width="120" height="60" as="geometry" />
        </mxCell>
        <mxCell id="RZKY2WEgMke_fP3LsuPX-20" style="edgeStyle=orthogonalEdgeStyle;rounded=0;orthogonalLoop=1;jettySize=auto;html=1;entryX=0.098;entryY=1.017;entryDx=0;entryDy=0;entryPerimeter=0;" edge="1" parent="1" source="RZKY2WEgMke_fP3LsuPX-15" target="rV2PJGgQM-Izon9mqpt5-4">
          <mxGeometry relative="1" as="geometry">
            <Array as="points">
              <mxPoint x="-147" y="320" />
              <mxPoint x="-147" y="320" />
            </Array>
          </mxGeometry>
        </mxCell>
        <mxCell id="RZKY2WEgMke_fP3LsuPX-15" value="dma buf、dma fence" style="rounded=0;whiteSpace=wrap;html=1;" vertex="1" parent="1">
          <mxGeometry x="-210" y="330" width="810" height="60" as="geometry" />
        </mxCell>
        <mxCell id="RZKY2WEgMke_fP3LsuPX-16" value="" style="rounded=0;whiteSpace=wrap;html=1;" vertex="1" parent="1">
          <mxGeometry x="-240" y="430" width="960" height="60" as="geometry" />
        </mxCell>
        <mxCell id="RZKY2WEgMke_fP3LsuPX-17" value="output buf" style="rounded=0;whiteSpace=wrap;html=1;" vertex="1" parent="1">
          <mxGeometry x="230" y="430" width="120" height="60" as="geometry" />
        </mxCell>
        <mxCell id="RZKY2WEgMke_fP3LsuPX-19" style="edgeStyle=orthogonalEdgeStyle;rounded=0;orthogonalLoop=1;jettySize=auto;html=1;entryX=0.099;entryY=0.967;entryDx=0;entryDy=0;entryPerimeter=0;" edge="1" parent="1" source="RZKY2WEgMke_fP3LsuPX-18" target="RZKY2WEgMke_fP3LsuPX-15">
          <mxGeometry relative="1" as="geometry" />
        </mxCell>
        <mxCell id="RZKY2WEgMke_fP3LsuPX-18" value="input buf" style="rounded=0;whiteSpace=wrap;html=1;" vertex="1" parent="1">
          <mxGeometry x="-190" y="430" width="120" height="60" as="geometry" />
        </mxCell>
      </root>
    </mxGraphModel>
  </diagram>
</mxfile>
